<svg width="28" height="28" viewBox="0 0 28 28" fill="none" xmlns="http://www.w3.org/2000/svg">
<path d="M10.8809 0H18.1932C20.0183 0 21.5664 0.194685 22.8366 0.584145C24.1305 0.950607 25.1701 1.67207 25.9555 2.74865C26.7409 3.82522 27.1341 5.33697 27.1341 7.28399C27.1341 8.93316 26.7759 10.2159 26.0595 11.132C25.3431 12.0483 24.327 12.6323 23.0096 12.8844C24.6267 13.0905 25.8629 13.7662 26.7182 14.9114C27.5726 16.0567 27.9998 17.6143 27.9998 19.5842C27.9998 25.0815 25.1701 27.8302 19.5098 27.8302H10.8809V0ZM18.2972 11.132C19.6137 11.132 20.5031 10.8343 20.9653 10.2388C21.4501 9.64318 21.693 8.71548 21.693 7.45577C21.693 6.35629 21.3925 5.53166 20.7923 4.98196C20.1912 4.40937 19.3132 4.12298 18.1583 4.12298H17.0837V11.132H18.2972ZM18.4012 23.5353C19.7177 23.5353 20.642 23.2146 21.1732 22.5733C21.728 21.909 22.0049 20.8783 22.0049 19.481C22.0049 17.9006 21.728 16.7897 21.1732 16.1483C20.642 15.507 19.7064 15.1863 18.3662 15.1863H17.0837V23.5353H18.4012Z" fill="#4DBEFE"/>
<path d="M17.1189 0H9.80654C7.98152 0 6.43342 0.194685 5.16317 0.584145C3.86931 0.950607 2.82968 1.67207 2.04429 2.74865C1.25889 3.82522 0.865716 5.33697 0.865716 7.28399C0.865716 8.93316 1.22391 10.2159 1.94031 11.132C2.65671 12.0483 3.67274 12.6323 4.99023 12.8844C3.37313 13.0905 2.1369 13.7662 1.28157 14.9114C0.427183 16.0567 0 17.6143 0 19.5842C0 25.0815 2.82969 27.8302 8.49002 27.8302H17.1189V0ZM9.70259 11.132C8.38604 11.132 7.49669 10.8343 7.03452 10.2388C6.54968 9.64318 6.30676 8.71548 6.30676 7.45577C6.30676 6.35629 6.60731 5.53166 7.20746 4.98196C7.80856 4.40937 8.68659 4.12298 9.84153 4.12298H10.9161V11.132H9.70259ZM9.59862 23.5353C8.28206 23.5353 7.35775 23.2146 6.8266 22.5733C6.27181 21.909 5.99488 20.8783 5.99488 19.481C5.99488 17.9006 6.27181 16.7897 6.8266 16.1483C7.35775 15.507 8.29342 15.1863 9.6336 15.1863H10.9161V23.5353H9.59862Z" fill="#4DBEFE"/>
</svg>
