<svg width="358" height="242" viewBox="0 0 358 242" fill="none" xmlns="http://www.w3.org/2000/svg">
<g filter="url(#filter0_d_228_6)">
<rect x="4" width="350" height="234" rx="30" fill="url(#paint0_linear_228_6)"/>
</g>
<path d="M317.89 199H322.837C324.072 199 325.12 199.132 325.979 199.395C326.854 199.643 327.558 200.131 328.089 200.86C328.621 201.588 328.887 202.611 328.887 203.928C328.887 205.044 328.644 205.912 328.16 206.532C327.675 207.152 326.987 207.547 326.096 207.718C327.19 207.857 328.027 208.314 328.605 209.089C329.183 209.864 329.472 210.918 329.472 212.251C329.472 215.97 327.558 217.83 323.728 217.83H317.89V199ZM322.908 206.532C323.798 206.532 324.4 206.331 324.713 205.928C325.041 205.525 325.205 204.897 325.205 204.045C325.205 203.301 325.002 202.743 324.596 202.371C324.189 201.983 323.595 201.79 322.814 201.79H322.087V206.532H322.908ZM322.978 214.924C323.869 214.924 324.494 214.707 324.854 214.273C325.229 213.824 325.416 213.126 325.416 212.181C325.416 211.112 325.229 210.36 324.854 209.926C324.494 209.492 323.861 209.275 322.954 209.275H322.087V214.924H322.978Z" fill="#4DBEFE"/>
<path d="M322.11 199H317.163C315.928 199 314.88 199.132 314.021 199.395C313.145 199.643 312.442 200.131 311.911 200.86C311.379 201.588 311.113 202.611 311.113 203.928C311.113 205.044 311.355 205.912 311.84 206.532C312.325 207.152 313.012 207.547 313.904 207.718C312.81 207.857 311.973 208.314 311.394 209.089C310.816 209.864 310.527 210.918 310.527 212.251C310.527 215.97 312.442 217.83 316.272 217.83H322.11V199ZM317.092 206.532C316.201 206.532 315.6 206.331 315.287 205.928C314.959 205.525 314.795 204.897 314.795 204.045C314.795 203.301 314.998 202.743 315.404 202.371C315.811 201.983 316.405 201.79 317.186 201.79H317.913V206.532H317.092ZM317.022 214.924C316.131 214.924 315.506 214.707 315.146 214.273C314.771 213.824 314.584 213.126 314.584 212.181C314.584 211.112 314.771 210.36 315.146 209.926C315.506 209.492 316.139 209.275 317.046 209.275H317.913V214.924H317.022Z" fill="#4DBEFE"/>
<rect x="28" y="20" width="40" height="30" rx="5" fill="url(#paint1_linear_228_6)"/>
<rect x="31.792" y="22.1511" width="15.5" height="7.5" rx="3.75" stroke="#D1D1D1" stroke-width="0.5"/>
<rect x="31.792" y="31.1511" width="15.5" height="7.5" rx="3.75" stroke="#B7E5FF" stroke-width="0.5"/>
<rect x="31.792" y="40.1511" width="15.5" height="7.5" rx="3.75" stroke="#B7E5FF" stroke-width="0.5"/>
<rect x="48.792" y="22.1511" width="15.5" height="7.5" rx="3.75" stroke="#B7E5FF" stroke-width="0.5"/>
<rect x="48.792" y="31.1511" width="15.5" height="7.5" rx="3.75" stroke="#D1D1D1" stroke-width="0.5"/>
<rect x="48.792" y="40.1511" width="15.5" height="7.5" rx="3.75" stroke="#B7E5FF" stroke-width="0.5"/>
<rect x="274" y="20" width="63" height="20" rx="10" fill="#101010" fill-opacity="0.26"/>
<defs>
<filter id="filter0_d_228_6" x="0" y="0" width="358" height="242" filterUnits="userSpaceOnUse" color-interpolation-filters="sRGB">
<feFlood flood-opacity="0" result="BackgroundImageFix"/>
<feColorMatrix in="SourceAlpha" type="matrix" values="0 0 0 0 0 0 0 0 0 0 0 0 0 0 0 0 0 0 127 0" result="hardAlpha"/>
<feOffset dy="4"/>
<feGaussianBlur stdDeviation="2"/>
<feComposite in2="hardAlpha" operator="out"/>
<feColorMatrix type="matrix" values="0 0 0 0 0 0 0 0 0 0 0 0 0 0 0 0 0 0 0.25 0"/>
<feBlend mode="normal" in2="BackgroundImageFix" result="effect1_dropShadow_228_6"/>
<feBlend mode="normal" in="SourceGraphic" in2="effect1_dropShadow_228_6" result="shape"/>
</filter>
<linearGradient id="paint0_linear_228_6" x1="15" y1="6" x2="354" y2="234" gradientUnits="userSpaceOnUse">
<stop stop-color="#434854"/>
<stop offset="1" stop-color="#282F3B"/>
</linearGradient>
<linearGradient id="paint1_linear_228_6" x1="27.542" y1="34.9011" x2="67.542" y2="34.9011" gradientUnits="userSpaceOnUse">
<stop stop-color="#788391"/>
<stop offset="1" stop-color="#2A3038"/>
</linearGradient>
</defs>
</svg>
