<svg width="371" height="76" viewBox="0 0 371 76" fill="none" xmlns="http://www.w3.org/2000/svg">
<rect width="114" height="4" transform="matrix(1 0 0 -1 48 21)" fill="#56C2FF"/>
<rect width="113" height="4" transform="matrix(1 0 0 -1 197 21)" fill="#717171"/>
<path d="M49.5406 18.7908C49.5406 28.5847 41.3175 36.5816 31.1019 36.5816C20.8862 36.5816 12.6631 28.5847 12.6631 18.7908C12.6631 8.9969 20.8862 1 31.1019 1C41.3175 1 49.5406 8.9969 49.5406 18.7908Z" fill="#56C2FF" stroke="#56C2FF" stroke-width="2"/>
<circle cx="179.485" cy="18.7908" r="17.7908" stroke="#56C2FF" stroke-width="2"/>
<path d="M346.306 18.7908C346.306 28.5847 338.083 36.5816 327.867 36.5816C317.652 36.5816 309.429 28.5847 309.429 18.7908C309.429 8.9969 317.652 1 327.867 1C338.083 1 346.306 8.9969 346.306 18.7908Z" fill="#717171" stroke="#4B4B4B" stroke-width="2"/>
<path d="M32.7791 13.8V25H31.1951V15.192H28.6671V13.8H32.7791Z" fill="white"/>
<path d="M183.546 23.608V25H175.498V23.912L180.058 19.512C180.613 18.9787 180.986 18.52 181.178 18.136C181.37 17.7413 181.466 17.3467 181.466 16.952C181.466 16.3653 181.258 15.912 180.842 15.592C180.437 15.2613 179.85 15.096 179.082 15.096C177.845 15.096 176.89 15.5013 176.218 16.312L175.13 15.368C175.568 14.8347 176.138 14.4187 176.842 14.12C177.557 13.8213 178.352 13.672 179.226 13.672C180.4 13.672 181.333 13.9547 182.026 14.52C182.72 15.0747 183.066 15.832 183.066 16.792C183.066 17.3893 182.938 17.9547 182.682 18.488C182.426 19.0213 181.941 19.6293 181.226 20.312L177.802 23.608H183.546Z" fill="#56C2FF"/>
<path d="M328.478 18.504C329.577 18.6107 330.414 18.952 330.99 19.528C331.566 20.0933 331.854 20.8187 331.854 21.704C331.854 22.344 331.694 22.9253 331.374 23.448C331.054 23.96 330.574 24.3707 329.934 24.68C329.305 24.9787 328.531 25.128 327.614 25.128C326.814 25.128 326.046 25.0107 325.31 24.776C324.574 24.5307 323.971 24.1947 323.502 23.768L324.238 22.504C324.622 22.8667 325.113 23.16 325.71 23.384C326.307 23.5973 326.942 23.704 327.614 23.704C328.446 23.704 329.091 23.528 329.55 23.176C330.019 22.824 330.254 22.3387 330.254 21.72C330.254 21.1013 330.025 20.6213 329.566 20.28C329.107 19.9387 328.414 19.768 327.486 19.768H326.59V18.648L329.406 15.192H324.014V13.8H331.406V14.888L328.478 18.504Z" fill="#AAAAAA"/>
<path d="M12.8972 48.9571H16.4372C17.3252 48.9571 18.1132 49.1331 18.8012 49.4851C19.4892 49.8371 20.0212 50.3331 20.3972 50.9731C20.7812 51.6051 20.9732 52.3331 20.9732 53.1571C20.9732 53.9811 20.7812 54.7131 20.3972 55.3531C20.0212 55.9851 19.4892 56.4771 18.8012 56.8291C18.1132 57.1811 17.3252 57.3571 16.4372 57.3571H12.8972V48.9571ZM16.3652 56.3131C17.0452 56.3131 17.6412 56.1811 18.1532 55.9171C18.6732 55.6531 19.0732 55.2851 19.3532 54.8131C19.6332 54.3331 19.7732 53.7811 19.7732 53.1571C19.7732 52.5331 19.6332 51.9851 19.3532 51.5131C19.0732 51.0331 18.6732 50.6611 18.1532 50.3971C17.6412 50.1331 17.0452 50.0011 16.3652 50.0011H14.0972V56.3131H16.3652ZM24.9593 50.9371C25.8393 50.9371 26.5113 51.1531 26.9753 51.5851C27.4473 52.0171 27.6833 52.6611 27.6833 53.5171V57.3571H26.5913V56.5171C26.3993 56.8131 26.1233 57.0411 25.7633 57.2011C25.4113 57.3531 24.9913 57.4291 24.5033 57.4291C23.7913 57.4291 23.2193 57.2571 22.7873 56.9131C22.3633 56.5691 22.1513 56.1171 22.1513 55.5571C22.1513 54.9971 22.3553 54.5491 22.7633 54.2131C23.1713 53.8691 23.8193 53.6971 24.7073 53.6971H26.5313V53.4691C26.5313 52.9731 26.3873 52.5931 26.0993 52.3291C25.8113 52.0651 25.3873 51.9331 24.8273 51.9331C24.4513 51.9331 24.0833 51.9971 23.7233 52.1251C23.3633 52.2451 23.0593 52.4091 22.8113 52.6171L22.3313 51.7531C22.6593 51.4891 23.0513 51.2891 23.5073 51.1531C23.9633 51.0091 24.4473 50.9371 24.9593 50.9371ZM24.6953 56.5411C25.1353 56.5411 25.5153 56.4451 25.8353 56.2531C26.1553 56.0531 26.3873 55.7731 26.5313 55.4131V54.5251H24.7553C23.7793 54.5251 23.2913 54.8531 23.2913 55.5091C23.2913 55.8291 23.4153 56.0811 23.6633 56.2651C23.9113 56.4491 24.2553 56.5411 24.6953 56.5411ZM35.8503 48.4531V57.3571H34.7463V56.3491C34.4903 56.7011 34.1663 56.9691 33.7743 57.1531C33.3823 57.3371 32.9503 57.4291 32.4783 57.4291C31.8623 57.4291 31.3103 57.2931 30.8223 57.0211C30.3343 56.7491 29.9503 56.3691 29.6703 55.8811C29.3983 55.3851 29.2623 54.8171 29.2623 54.1771C29.2623 53.5371 29.3983 52.9731 29.6703 52.4851C29.9503 51.9971 30.3343 51.6171 30.8223 51.3451C31.3103 51.0731 31.8623 50.9371 32.4783 50.9371C32.9343 50.9371 33.3543 51.0251 33.7383 51.2011C34.1223 51.3691 34.4423 51.6211 34.6983 51.9571V48.4531H35.8503ZM32.5743 56.4211C32.9743 56.4211 33.3383 56.3291 33.6663 56.1451C33.9943 55.9531 34.2503 55.6891 34.4343 55.3531C34.6183 55.0091 34.7103 54.6171 34.7103 54.1771C34.7103 53.7371 34.6183 53.3491 34.4343 53.0131C34.2503 52.6691 33.9943 52.4051 33.6663 52.2211C33.3383 52.0371 32.9743 51.9451 32.5743 51.9451C32.1663 51.9451 31.7983 52.0371 31.4703 52.2211C31.1503 52.4051 30.8943 52.6691 30.7023 53.0131C30.5183 53.3491 30.4263 53.7371 30.4263 54.1771C30.4263 54.6171 30.5183 55.0091 30.7023 55.3531C30.8943 55.6891 31.1503 55.9531 31.4703 56.1451C31.7983 56.3291 32.1663 56.4211 32.5743 56.4211ZM40.754 57.4291C40.122 57.4291 39.554 57.2891 39.05 57.0091C38.546 56.7291 38.15 56.3451 37.862 55.8571C37.582 55.3611 37.442 54.8011 37.442 54.1771C37.442 53.5531 37.582 52.9971 37.862 52.5091C38.15 52.0131 38.546 51.6291 39.05 51.3571C39.554 51.0771 40.122 50.9371 40.754 50.9371C41.386 50.9371 41.95 51.0771 42.446 51.3571C42.95 51.6291 43.342 52.0131 43.622 52.5091C43.91 52.9971 44.054 53.5531 44.054 54.1771C44.054 54.8011 43.91 55.3611 43.622 55.8571C43.342 56.3451 42.95 56.7291 42.446 57.0091C41.95 57.2891 41.386 57.4291 40.754 57.4291ZM40.754 56.4211C41.162 56.4211 41.526 56.3291 41.846 56.1451C42.174 55.9531 42.43 55.6891 42.614 55.3531C42.798 55.0091 42.89 54.6171 42.89 54.1771C42.89 53.7371 42.798 53.3491 42.614 53.0131C42.43 52.6691 42.174 52.4051 41.846 52.2211C41.526 52.0371 41.162 51.9451 40.754 51.9451C40.346 51.9451 39.978 52.0371 39.65 52.2211C39.33 52.4051 39.074 52.6691 38.882 53.0131C38.698 53.3491 38.606 53.7371 38.606 54.1771C38.606 54.6171 38.698 55.0091 38.882 55.3531C39.074 55.6891 39.33 55.9531 39.65 56.1451C39.978 56.3291 40.346 56.4211 40.754 56.4211ZM47.4712 57.4291C46.9512 57.4291 46.4512 57.3611 45.9712 57.2251C45.4912 57.0811 45.1152 56.9011 44.8432 56.6851L45.3232 55.7731C45.6032 55.9731 45.9432 56.1331 46.3432 56.2531C46.7432 56.3731 47.1472 56.4331 47.5552 56.4331C48.5632 56.4331 49.0672 56.1451 49.0672 55.5691C49.0672 55.3771 48.9992 55.2251 48.8632 55.1131C48.7272 55.0011 48.5552 54.9211 48.3472 54.8731C48.1472 54.8171 47.8592 54.7571 47.4832 54.6931C46.9712 54.6131 46.5512 54.5211 46.2232 54.4171C45.9032 54.3131 45.6272 54.1371 45.3952 53.8891C45.1632 53.6411 45.0472 53.2931 45.0472 52.8451C45.0472 52.2691 45.2872 51.8091 45.7672 51.4651C46.2472 51.1131 46.8912 50.9371 47.6992 50.9371C48.1232 50.9371 48.5472 50.9891 48.9712 51.0931C49.3952 51.1971 49.7432 51.3371 50.0152 51.5131L49.5232 52.4251C49.0032 52.0891 48.3912 51.9211 47.6872 51.9211C47.1992 51.9211 46.8272 52.0011 46.5712 52.1611C46.3152 52.3211 46.1872 52.5331 46.1872 52.7971C46.1872 53.0051 46.2592 53.1691 46.4032 53.2891C46.5472 53.4091 46.7232 53.4971 46.9312 53.5531C47.1472 53.6091 47.4472 53.6731 47.8312 53.7451C48.3432 53.8331 48.7552 53.9291 49.0672 54.0331C49.3872 54.1291 49.6592 54.2971 49.8832 54.5371C50.1072 54.7771 50.2192 55.1131 50.2192 55.5451C50.2192 56.1211 49.9712 56.5811 49.4752 56.9251C48.9872 57.2611 48.3192 57.4291 47.4712 57.4291ZM13.0426 65.9371C13.6586 65.9371 14.2106 66.0731 14.6986 66.3451C15.1866 66.6171 15.5666 66.9971 15.8386 67.4851C16.1186 67.9731 16.2586 68.5371 16.2586 69.1771C16.2586 69.8171 16.1186 70.3851 15.8386 70.8811C15.5666 71.3691 15.1866 71.7491 14.6986 72.0211C14.2106 72.2931 13.6586 72.4291 13.0426 72.4291C12.5706 72.4291 12.1386 72.3371 11.7466 72.1531C11.3546 71.9691 11.0306 71.7011 10.7746 71.3491V72.3571H9.6706V63.4531H10.8226V66.9571C11.0786 66.6211 11.3986 66.3691 11.7826 66.2011C12.1666 66.0251 12.5866 65.9371 13.0426 65.9371ZM12.9466 71.4211C13.3546 71.4211 13.7186 71.3291 14.0386 71.1451C14.3666 70.9531 14.6226 70.6891 14.8066 70.3531C14.9986 70.0091 15.0946 69.6171 15.0946 69.1771C15.0946 68.7371 14.9986 68.3491 14.8066 68.0131C14.6226 67.6691 14.3666 67.4051 14.0386 67.2211C13.7186 67.0371 13.3546 66.9451 12.9466 66.9451C12.5466 66.9451 12.1826 67.0371 11.8546 67.2211C11.5266 67.4051 11.2706 67.6691 11.0866 68.0131C10.9026 68.3491 10.8106 68.7371 10.8106 69.1771C10.8106 69.6171 10.9026 70.0091 11.0866 70.3531C11.2706 70.6891 11.5266 70.9531 11.8546 71.1451C12.1826 71.3291 12.5466 71.4211 12.9466 71.4211ZM20.1077 65.9371C20.9877 65.9371 21.6597 66.1531 22.1237 66.5851C22.5957 67.0171 22.8317 67.6611 22.8317 68.5171V72.3571H21.7397V71.5171C21.5477 71.8131 21.2717 72.0411 20.9117 72.2011C20.5597 72.3531 20.1397 72.4291 19.6517 72.4291C18.9397 72.4291 18.3677 72.2571 17.9357 71.9131C17.5117 71.5691 17.2997 71.1171 17.2997 70.5571C17.2997 69.9971 17.5037 69.5491 17.9117 69.2131C18.3197 68.8691 18.9677 68.6971 19.8557 68.6971H21.6797V68.4691C21.6797 67.9731 21.5357 67.5931 21.2477 67.3291C20.9597 67.0651 20.5357 66.9331 19.9757 66.9331C19.5997 66.9331 19.2317 66.9971 18.8717 67.1251C18.5117 67.2451 18.2077 67.4091 17.9597 67.6171L17.4797 66.7531C17.8077 66.4891 18.1997 66.2891 18.6557 66.1531C19.1117 66.0091 19.5957 65.9371 20.1077 65.9371ZM19.8437 71.5411C20.2837 71.5411 20.6637 71.4451 20.9837 71.2531C21.3037 71.0531 21.5357 70.7731 21.6797 70.4131V69.5251H19.9037C18.9277 69.5251 18.4397 69.8531 18.4397 70.5091C18.4397 70.8291 18.5637 71.0811 18.8117 71.2651C19.0597 71.4491 19.4037 71.5411 19.8437 71.5411ZM20.9237 63.5131H22.3877L20.3717 65.0731H19.2917L20.9237 63.5131ZM26.7876 72.4291C26.2676 72.4291 25.7676 72.3611 25.2876 72.2251C24.8076 72.0811 24.4316 71.9011 24.1596 71.6851L24.6396 70.7731C24.9196 70.9731 25.2596 71.1331 25.6596 71.2531C26.0596 71.3731 26.4636 71.4331 26.8716 71.4331C27.8796 71.4331 28.3836 71.1451 28.3836 70.5691C28.3836 70.3771 28.3156 70.2251 28.1796 70.1131C28.0436 70.0011 27.8716 69.9211 27.6636 69.8731C27.4636 69.8171 27.1756 69.7571 26.7996 69.6931C26.2876 69.6131 25.8676 69.5211 25.5396 69.4171C25.2196 69.3131 24.9436 69.1371 24.7116 68.8891C24.4796 68.6411 24.3636 68.2931 24.3636 67.8451C24.3636 67.2691 24.6036 66.8091 25.0836 66.4651C25.5636 66.1131 26.2076 65.9371 27.0156 65.9371C27.4396 65.9371 27.8636 65.9891 28.2876 66.0931C28.7116 66.1971 29.0596 66.3371 29.3316 66.5131L28.8396 67.4251C28.3196 67.0891 27.7076 66.9211 27.0036 66.9211C26.5156 66.9211 26.1436 67.0011 25.8876 67.1611C25.6316 67.3211 25.5036 67.5331 25.5036 67.7971C25.5036 68.0051 25.5756 68.1691 25.7196 68.2891C25.8636 68.4091 26.0396 68.4971 26.2476 68.5531C26.4636 68.6091 26.7636 68.6731 27.1476 68.7451C27.6596 68.8331 28.0716 68.9291 28.3836 69.0331C28.7036 69.1291 28.9756 69.2971 29.1996 69.5371C29.4236 69.7771 29.5356 70.1131 29.5356 70.5451C29.5356 71.1211 29.2876 71.5811 28.7916 71.9251C28.3036 72.2611 27.6356 72.4291 26.7876 72.4291ZM30.9753 65.9971H32.1273V72.3571H30.9753V65.9971ZM31.5513 64.7731C31.3273 64.7731 31.1393 64.7011 30.9873 64.5571C30.8433 64.4131 30.7713 64.2371 30.7713 64.0291C30.7713 63.8211 30.8433 63.6451 30.9873 63.5011C31.1393 63.3491 31.3273 63.2731 31.5513 63.2731C31.7753 63.2731 31.9593 63.3451 32.1033 63.4891C32.2553 63.6251 32.3313 63.7971 32.3313 64.0051C32.3313 64.2211 32.2553 64.4051 32.1033 64.5571C31.9593 64.7011 31.7753 64.7731 31.5513 64.7731ZM37.0989 72.4291C36.4509 72.4291 35.8709 72.2891 35.3589 72.0091C34.8549 71.7291 34.4589 71.3451 34.1709 70.8571C33.8829 70.3611 33.7389 69.8011 33.7389 69.1771C33.7389 68.5531 33.8829 67.9971 34.1709 67.5091C34.4589 67.0131 34.8549 66.6291 35.3589 66.3571C35.8709 66.0771 36.4509 65.9371 37.0989 65.9371C37.6749 65.9371 38.1869 66.0531 38.6349 66.2851C39.0909 66.5171 39.4429 66.8531 39.6909 67.2931L38.8149 67.8571C38.6149 67.5531 38.3669 67.3251 38.0709 67.1731C37.7749 67.0211 37.4469 66.9451 37.0869 66.9451C36.6709 66.9451 36.2949 67.0371 35.9589 67.2211C35.6309 67.4051 35.3709 67.6691 35.1789 68.0131C34.9949 68.3491 34.9029 68.7371 34.9029 69.1771C34.9029 69.6251 34.9949 70.0211 35.1789 70.3651C35.3709 70.7011 35.6309 70.9611 35.9589 71.1451C36.2949 71.3291 36.6709 71.4211 37.0869 71.4211C37.4469 71.4211 37.7749 71.3451 38.0709 71.1931C38.3669 71.0411 38.6149 70.8131 38.8149 70.5091L39.6909 71.0611C39.4429 71.5011 39.0909 71.8411 38.6349 72.0811C38.1869 72.3131 37.6749 72.4291 37.0989 72.4291ZM43.8126 72.4291C43.1806 72.4291 42.6126 72.2891 42.1086 72.0091C41.6046 71.7291 41.2086 71.3451 40.9206 70.8571C40.6406 70.3611 40.5006 69.8011 40.5006 69.1771C40.5006 68.5531 40.6406 67.9971 40.9206 67.5091C41.2086 67.0131 41.6046 66.6291 42.1086 66.3571C42.6126 66.0771 43.1806 65.9371 43.8126 65.9371C44.4446 65.9371 45.0086 66.0771 45.5046 66.3571C46.0086 66.6291 46.4006 67.0131 46.6806 67.5091C46.9686 67.9971 47.1126 68.5531 47.1126 69.1771C47.1126 69.8011 46.9686 70.3611 46.6806 70.8571C46.4006 71.3451 46.0086 71.7291 45.5046 72.0091C45.0086 72.2891 44.4446 72.4291 43.8126 72.4291ZM43.8126 71.4211C44.2206 71.4211 44.5846 71.3291 44.9046 71.1451C45.2326 70.9531 45.4886 70.6891 45.6726 70.3531C45.8566 70.0091 45.9486 69.6171 45.9486 69.1771C45.9486 68.7371 45.8566 68.3491 45.6726 68.0131C45.4886 67.6691 45.2326 67.4051 44.9046 67.2211C44.5846 67.0371 44.2206 66.9451 43.8126 66.9451C43.4046 66.9451 43.0366 67.0371 42.7086 67.2211C42.3886 67.4051 42.1326 67.6691 41.9406 68.0131C41.7566 68.3491 41.6646 68.7371 41.6646 69.1771C41.6646 69.6171 41.7566 70.0091 41.9406 70.3531C42.1326 70.6891 42.3886 70.9531 42.7086 71.1451C43.0366 71.3291 43.4046 71.4211 43.8126 71.4211ZM50.5298 72.4291C50.0098 72.4291 49.5098 72.3611 49.0298 72.2251C48.5498 72.0811 48.1738 71.9011 47.9018 71.6851L48.3818 70.7731C48.6618 70.9731 49.0018 71.1331 49.4018 71.2531C49.8018 71.3731 50.2058 71.4331 50.6138 71.4331C51.6218 71.4331 52.1258 71.1451 52.1258 70.5691C52.1258 70.3771 52.0578 70.2251 51.9218 70.1131C51.7858 70.0011 51.6138 69.9211 51.4058 69.8731C51.2058 69.8171 50.9178 69.7571 50.5418 69.6931C50.0298 69.6131 49.6098 69.5211 49.2818 69.4171C48.9618 69.3131 48.6858 69.1371 48.4538 68.8891C48.2218 68.6411 48.1058 68.2931 48.1058 67.8451C48.1058 67.2691 48.3458 66.8091 48.8258 66.4651C49.3058 66.1131 49.9498 65.9371 50.7578 65.9371C51.1818 65.9371 51.6058 65.9891 52.0298 66.0931C52.4538 66.1971 52.8018 66.3371 53.0738 66.5131L52.5818 67.4251C52.0618 67.0891 51.4498 66.9211 50.7458 66.9211C50.2578 66.9211 49.8858 67.0011 49.6298 67.1611C49.3738 67.3211 49.2458 67.5331 49.2458 67.7971C49.2458 68.0051 49.3178 68.1691 49.4618 68.2891C49.6058 68.4091 49.7818 68.4971 49.9898 68.5531C50.2058 68.6091 50.5058 68.6731 50.8898 68.7451C51.4018 68.8331 51.8138 68.9291 52.1258 69.0331C52.4458 69.1291 52.7178 69.2971 52.9418 69.5371C53.1658 69.7771 53.2778 70.1131 53.2778 70.5451C53.2778 71.1211 53.0298 71.5811 52.5338 71.9251C52.0458 72.2611 51.3778 72.4291 50.5298 72.4291Z" fill="#56C2FF"/>
<path d="M146.948 57.096C146.108 57.096 145.348 56.912 144.668 56.544C143.996 56.168 143.468 55.656 143.084 55.008C142.7 54.352 142.508 53.616 142.508 52.8C142.508 51.984 142.7 51.252 143.084 50.604C143.468 49.948 144 49.436 144.68 49.068C145.36 48.692 146.12 48.504 146.96 48.504C147.616 48.504 148.216 48.616 148.76 48.84C149.304 49.056 149.768 49.38 150.152 49.812L149.372 50.568C148.74 49.904 147.952 49.572 147.008 49.572C146.384 49.572 145.82 49.712 145.316 49.992C144.812 50.272 144.416 50.66 144.128 51.156C143.848 51.644 143.708 52.192 143.708 52.8C143.708 53.408 143.848 53.96 144.128 54.456C144.416 54.944 144.812 55.328 145.316 55.608C145.82 55.888 146.384 56.028 147.008 56.028C147.944 56.028 148.732 55.692 149.372 55.02L150.152 55.776C149.768 56.208 149.3 56.536 148.748 56.76C148.204 56.984 147.604 57.096 146.948 57.096ZM154.15 57.072C153.518 57.072 152.95 56.932 152.446 56.652C151.942 56.372 151.546 55.988 151.258 55.5C150.978 55.004 150.838 54.444 150.838 53.82C150.838 53.196 150.978 52.64 151.258 52.152C151.546 51.656 151.942 51.272 152.446 51C152.95 50.72 153.518 50.58 154.15 50.58C154.782 50.58 155.346 50.72 155.842 51C156.346 51.272 156.738 51.656 157.018 52.152C157.306 52.64 157.45 53.196 157.45 53.82C157.45 54.444 157.306 55.004 157.018 55.5C156.738 55.988 156.346 56.372 155.842 56.652C155.346 56.932 154.782 57.072 154.15 57.072ZM154.15 56.064C154.558 56.064 154.922 55.972 155.242 55.788C155.57 55.596 155.826 55.332 156.01 54.996C156.194 54.652 156.286 54.26 156.286 53.82C156.286 53.38 156.194 52.992 156.01 52.656C155.826 52.312 155.57 52.048 155.242 51.864C154.922 51.68 154.558 51.588 154.15 51.588C153.742 51.588 153.374 51.68 153.046 51.864C152.726 52.048 152.47 52.312 152.278 52.656C152.094 52.992 152.002 53.38 152.002 53.82C152.002 54.26 152.094 54.652 152.278 54.996C152.47 55.332 152.726 55.596 153.046 55.788C153.374 55.972 153.742 56.064 154.15 56.064ZM162.439 50.58C163.247 50.58 163.887 50.816 164.359 51.288C164.839 51.752 165.079 52.436 165.079 53.34V57H163.927V53.472C163.927 52.856 163.779 52.392 163.483 52.08C163.187 51.768 162.763 51.612 162.211 51.612C161.587 51.612 161.095 51.796 160.735 52.164C160.375 52.524 160.195 53.044 160.195 53.724V57H159.043V50.64H160.147V51.6C160.379 51.272 160.691 51.02 161.083 50.844C161.483 50.668 161.935 50.58 162.439 50.58ZM169.539 48.972C168.851 48.972 168.507 49.344 168.507 50.088V50.64H170.355V51.588H168.531V57H167.379V51.588H166.299V50.64H167.379V50.076C167.379 49.444 167.563 48.944 167.931 48.576C168.299 48.208 168.815 48.024 169.479 48.024C169.735 48.024 169.975 48.056 170.199 48.12C170.423 48.184 170.615 48.276 170.775 48.396L170.427 49.272C170.163 49.072 169.867 48.972 169.539 48.972ZM172.407 50.64H173.559V57H172.407V50.64ZM172.983 49.416C172.759 49.416 172.571 49.344 172.419 49.2C172.275 49.056 172.203 48.88 172.203 48.672C172.203 48.464 172.275 48.288 172.419 48.144C172.571 47.992 172.759 47.916 172.983 47.916C173.207 47.916 173.391 47.988 173.535 48.132C173.687 48.268 173.763 48.44 173.763 48.648C173.763 48.864 173.687 49.048 173.535 49.2C173.391 49.344 173.207 49.416 172.983 49.416ZM176.858 51.708C177.058 51.34 177.354 51.06 177.746 50.868C178.138 50.676 178.614 50.58 179.174 50.58V51.696C179.11 51.688 179.022 51.684 178.91 51.684C178.286 51.684 177.794 51.872 177.434 52.248C177.082 52.616 176.906 53.144 176.906 53.832V57H175.754V50.64H176.858V51.708ZM188.55 50.58C189.35 50.58 189.982 50.812 190.446 51.276C190.918 51.74 191.154 52.428 191.154 53.34V57H190.002V53.472C190.002 52.856 189.858 52.392 189.57 52.08C189.29 51.768 188.886 51.612 188.358 51.612C187.774 51.612 187.31 51.796 186.966 52.164C186.622 52.524 186.45 53.044 186.45 53.724V57H185.298V53.472C185.298 52.856 185.154 52.392 184.866 52.08C184.586 51.768 184.182 51.612 183.654 51.612C183.07 51.612 182.606 51.796 182.262 52.164C181.918 52.524 181.746 53.044 181.746 53.724V57H180.594V50.64H181.698V51.588C181.93 51.26 182.234 51.012 182.61 50.844C182.986 50.668 183.414 50.58 183.894 50.58C184.39 50.58 184.83 50.68 185.214 50.88C185.598 51.08 185.894 51.372 186.102 51.756C186.342 51.388 186.674 51.1 187.098 50.892C187.53 50.684 188.014 50.58 188.55 50.58ZM195.59 50.58C196.47 50.58 197.142 50.796 197.606 51.228C198.078 51.66 198.314 52.304 198.314 53.16V57H197.222V56.16C197.03 56.456 196.754 56.684 196.394 56.844C196.042 56.996 195.622 57.072 195.134 57.072C194.422 57.072 193.85 56.9 193.418 56.556C192.994 56.212 192.782 55.76 192.782 55.2C192.782 54.64 192.986 54.192 193.394 53.856C193.802 53.512 194.45 53.34 195.338 53.34H197.162V53.112C197.162 52.616 197.018 52.236 196.73 51.972C196.442 51.708 196.018 51.576 195.458 51.576C195.082 51.576 194.714 51.64 194.354 51.768C193.994 51.888 193.69 52.052 193.442 52.26L192.962 51.396C193.29 51.132 193.682 50.932 194.138 50.796C194.594 50.652 195.078 50.58 195.59 50.58ZM195.326 56.184C195.766 56.184 196.146 56.088 196.466 55.896C196.786 55.696 197.018 55.416 197.162 55.056V54.168H195.386C194.41 54.168 193.922 54.496 193.922 55.152C193.922 55.472 194.046 55.724 194.294 55.908C194.542 56.092 194.886 56.184 195.326 56.184ZM203.253 57.072C202.605 57.072 202.025 56.932 201.513 56.652C201.009 56.372 200.613 55.988 200.325 55.5C200.037 55.004 199.893 54.444 199.893 53.82C199.893 53.196 200.037 52.64 200.325 52.152C200.613 51.656 201.009 51.272 201.513 51C202.025 50.72 202.605 50.58 203.253 50.58C203.829 50.58 204.341 50.696 204.789 50.928C205.245 51.16 205.597 51.496 205.845 51.936L204.969 52.5C204.769 52.196 204.521 51.968 204.225 51.816C203.929 51.664 203.601 51.588 203.241 51.588C202.825 51.588 202.449 51.68 202.113 51.864C201.785 52.048 201.525 52.312 201.333 52.656C201.149 52.992 201.057 53.38 201.057 53.82C201.057 54.268 201.149 54.664 201.333 55.008C201.525 55.344 201.785 55.604 202.113 55.788C202.449 55.972 202.825 56.064 203.241 56.064C203.601 56.064 203.929 55.988 204.225 55.836C204.521 55.684 204.769 55.456 204.969 55.152L205.845 55.704C205.597 56.144 205.245 56.484 204.789 56.724C204.341 56.956 203.829 57.072 203.253 57.072ZM202.689 59.688C202.273 59.688 201.917 59.6 201.621 59.424L201.873 58.836C202.113 58.972 202.385 59.04 202.689 59.04C203.137 59.04 203.361 58.88 203.361 58.56C203.361 58.416 203.305 58.3 203.193 58.212C203.081 58.132 202.909 58.092 202.677 58.092H202.353L202.653 56.916H203.313L203.133 57.6C203.469 57.632 203.725 57.736 203.901 57.912C204.085 58.096 204.177 58.324 204.177 58.596C204.177 58.932 204.041 59.196 203.769 59.388C203.497 59.588 203.137 59.688 202.689 59.688ZM209.652 50.58C210.532 50.58 211.204 50.796 211.668 51.228C212.14 51.66 212.376 52.304 212.376 53.16V57H211.284V56.16C211.092 56.456 210.816 56.684 210.456 56.844C210.104 56.996 209.684 57.072 209.196 57.072C208.484 57.072 207.912 56.9 207.48 56.556C207.056 56.212 206.844 55.76 206.844 55.2C206.844 54.64 207.048 54.192 207.456 53.856C207.864 53.512 208.512 53.34 209.4 53.34H211.224V53.112C211.224 52.616 211.08 52.236 210.792 51.972C210.504 51.708 210.08 51.576 209.52 51.576C209.144 51.576 208.776 51.64 208.416 51.768C208.056 51.888 207.752 52.052 207.504 52.26L207.024 51.396C207.352 51.132 207.744 50.932 208.2 50.796C208.656 50.652 209.14 50.58 209.652 50.58ZM209.388 56.184C209.828 56.184 210.208 56.088 210.528 55.896C210.848 55.696 211.08 55.416 211.224 55.056V54.168H209.448C208.472 54.168 207.984 54.496 207.984 55.152C207.984 55.472 208.108 55.724 208.356 55.908C208.604 56.092 208.948 56.184 209.388 56.184ZM210.576 49.68C210.384 49.68 210.216 49.64 210.072 49.56C209.936 49.48 209.764 49.36 209.556 49.2C209.436 49.088 209.332 49.008 209.244 48.96C209.156 48.904 209.068 48.876 208.98 48.876C208.804 48.876 208.66 48.944 208.548 49.08C208.436 49.208 208.376 49.388 208.368 49.62H207.72C207.736 49.172 207.848 48.816 208.056 48.552C208.272 48.288 208.552 48.156 208.896 48.156C209.088 48.156 209.256 48.2 209.4 48.288C209.552 48.368 209.724 48.488 209.916 48.648C210.052 48.76 210.16 48.844 210.24 48.9C210.32 48.948 210.404 48.972 210.492 48.972C210.668 48.972 210.812 48.908 210.924 48.78C211.036 48.652 211.096 48.476 211.104 48.252H211.752C211.736 48.684 211.62 49.032 211.404 49.296C211.196 49.552 210.92 49.68 210.576 49.68ZM217.267 57.072C216.635 57.072 216.067 56.932 215.563 56.652C215.059 56.372 214.663 55.988 214.375 55.5C214.095 55.004 213.955 54.444 213.955 53.82C213.955 53.196 214.095 52.64 214.375 52.152C214.663 51.656 215.059 51.272 215.563 51C216.067 50.72 216.635 50.58 217.267 50.58C217.899 50.58 218.463 50.72 218.959 51C219.463 51.272 219.855 51.656 220.135 52.152C220.423 52.64 220.567 53.196 220.567 53.82C220.567 54.444 220.423 55.004 220.135 55.5C219.855 55.988 219.463 56.372 218.959 56.652C218.463 56.932 217.899 57.072 217.267 57.072ZM217.267 56.064C217.675 56.064 218.039 55.972 218.359 55.788C218.687 55.596 218.943 55.332 219.127 54.996C219.311 54.652 219.403 54.26 219.403 53.82C219.403 53.38 219.311 52.992 219.127 52.656C218.943 52.312 218.687 52.048 218.359 51.864C218.039 51.68 217.675 51.588 217.267 51.588C216.859 51.588 216.491 51.68 216.163 51.864C215.843 52.048 215.587 52.312 215.395 52.656C215.211 52.992 215.119 53.38 215.119 53.82C215.119 54.26 215.211 54.652 215.395 54.996C215.587 55.332 215.843 55.596 216.163 55.788C216.491 55.972 216.859 56.064 217.267 56.064ZM160.619 63.096V72H159.515V70.992C159.259 71.344 158.935 71.612 158.543 71.796C158.151 71.98 157.719 72.072 157.247 72.072C156.631 72.072 156.079 71.936 155.591 71.664C155.103 71.392 154.719 71.012 154.439 70.524C154.167 70.028 154.031 69.46 154.031 68.82C154.031 68.18 154.167 67.616 154.439 67.128C154.719 66.64 155.103 66.26 155.591 65.988C156.079 65.716 156.631 65.58 157.247 65.58C157.703 65.58 158.123 65.668 158.507 65.844C158.891 66.012 159.211 66.264 159.467 66.6V63.096H160.619ZM157.343 71.064C157.743 71.064 158.107 70.972 158.435 70.788C158.763 70.596 159.019 70.332 159.203 69.996C159.387 69.652 159.479 69.26 159.479 68.82C159.479 68.38 159.387 67.992 159.203 67.656C159.019 67.312 158.763 67.048 158.435 66.864C158.107 66.68 157.743 66.588 157.343 66.588C156.935 66.588 156.567 66.68 156.239 66.864C155.919 67.048 155.663 67.312 155.471 67.656C155.287 67.992 155.195 68.38 155.195 68.82C155.195 69.26 155.287 69.652 155.471 69.996C155.663 70.332 155.919 70.596 156.239 70.788C156.567 70.972 156.935 71.064 157.343 71.064ZM168.547 68.856C168.547 68.944 168.539 69.06 168.523 69.204H163.363C163.435 69.764 163.679 70.216 164.095 70.56C164.519 70.896 165.043 71.064 165.667 71.064C166.427 71.064 167.039 70.808 167.503 70.296L168.139 71.04C167.851 71.376 167.491 71.632 167.059 71.808C166.635 71.984 166.159 72.072 165.631 72.072C164.959 72.072 164.363 71.936 163.843 71.664C163.323 71.384 162.919 70.996 162.631 70.5C162.351 70.004 162.211 69.444 162.211 68.82C162.211 68.204 162.347 67.648 162.619 67.152C162.899 66.656 163.279 66.272 163.759 66C164.247 65.72 164.795 65.58 165.403 65.58C166.011 65.58 166.551 65.72 167.023 66C167.503 66.272 167.875 66.656 168.139 67.152C168.411 67.648 168.547 68.216 168.547 68.856ZM165.403 66.552C164.851 66.552 164.387 66.72 164.011 67.056C163.643 67.392 163.427 67.832 163.363 68.376H167.443C167.379 67.84 167.159 67.404 166.783 67.068C166.415 66.724 165.955 66.552 165.403 66.552ZM179.369 63.096V72H178.265V70.992C178.009 71.344 177.685 71.612 177.293 71.796C176.901 71.98 176.469 72.072 175.997 72.072C175.381 72.072 174.829 71.936 174.341 71.664C173.853 71.392 173.469 71.012 173.189 70.524C172.917 70.028 172.781 69.46 172.781 68.82C172.781 68.18 172.917 67.616 173.189 67.128C173.469 66.64 173.853 66.26 174.341 65.988C174.829 65.716 175.381 65.58 175.997 65.58C176.453 65.58 176.873 65.668 177.257 65.844C177.641 66.012 177.961 66.264 178.217 66.6V63.096H179.369ZM176.093 71.064C176.493 71.064 176.857 70.972 177.185 70.788C177.513 70.596 177.769 70.332 177.953 69.996C178.137 69.652 178.229 69.26 178.229 68.82C178.229 68.38 178.137 67.992 177.953 67.656C177.769 67.312 177.513 67.048 177.185 66.864C176.857 66.68 176.493 66.588 176.093 66.588C175.685 66.588 175.317 66.68 174.989 66.864C174.669 67.048 174.413 67.312 174.221 67.656C174.037 67.992 173.945 68.38 173.945 68.82C173.945 69.26 174.037 69.652 174.221 69.996C174.413 70.332 174.669 70.596 174.989 70.788C175.317 70.972 175.685 71.064 176.093 71.064ZM183.865 65.58C184.745 65.58 185.417 65.796 185.881 66.228C186.353 66.66 186.589 67.304 186.589 68.16V72H185.497V71.16C185.305 71.456 185.029 71.684 184.669 71.844C184.317 71.996 183.897 72.072 183.409 72.072C182.697 72.072 182.125 71.9 181.693 71.556C181.269 71.212 181.057 70.76 181.057 70.2C181.057 69.64 181.261 69.192 181.669 68.856C182.077 68.512 182.725 68.34 183.613 68.34H185.437V68.112C185.437 67.616 185.293 67.236 185.005 66.972C184.717 66.708 184.293 66.576 183.733 66.576C183.357 66.576 182.989 66.64 182.629 66.768C182.269 66.888 181.965 67.052 181.717 67.26L181.237 66.396C181.565 66.132 181.957 65.932 182.413 65.796C182.869 65.652 183.353 65.58 183.865 65.58ZM183.601 71.184C184.041 71.184 184.421 71.088 184.741 70.896C185.061 70.696 185.293 70.416 185.437 70.056V69.168H183.661C182.685 69.168 182.197 69.496 182.197 70.152C182.197 70.472 182.321 70.724 182.569 70.908C182.817 71.092 183.161 71.184 183.601 71.184ZM194.756 63.096V72H193.652V70.992C193.396 71.344 193.072 71.612 192.68 71.796C192.288 71.98 191.856 72.072 191.384 72.072C190.768 72.072 190.216 71.936 189.728 71.664C189.24 71.392 188.856 71.012 188.576 70.524C188.304 70.028 188.168 69.46 188.168 68.82C188.168 68.18 188.304 67.616 188.576 67.128C188.856 66.64 189.24 66.26 189.728 65.988C190.216 65.716 190.768 65.58 191.384 65.58C191.84 65.58 192.26 65.668 192.644 65.844C193.028 66.012 193.348 66.264 193.604 66.6V63.096H194.756ZM191.48 71.064C191.88 71.064 192.244 70.972 192.572 70.788C192.9 70.596 193.156 70.332 193.34 69.996C193.524 69.652 193.616 69.26 193.616 68.82C193.616 68.38 193.524 67.992 193.34 67.656C193.156 67.312 192.9 67.048 192.572 66.864C192.244 66.68 191.88 66.588 191.48 66.588C191.072 66.588 190.704 66.68 190.376 66.864C190.056 67.048 189.8 67.312 189.608 67.656C189.424 67.992 189.332 68.38 189.332 68.82C189.332 69.26 189.424 69.652 189.608 69.996C189.8 70.332 190.056 70.596 190.376 70.788C190.704 70.972 191.072 71.064 191.48 71.064ZM199.66 72.072C199.028 72.072 198.46 71.932 197.956 71.652C197.452 71.372 197.056 70.988 196.768 70.5C196.488 70.004 196.348 69.444 196.348 68.82C196.348 68.196 196.488 67.64 196.768 67.152C197.056 66.656 197.452 66.272 197.956 66C198.46 65.72 199.028 65.58 199.66 65.58C200.292 65.58 200.856 65.72 201.352 66C201.856 66.272 202.248 66.656 202.528 67.152C202.816 67.64 202.96 68.196 202.96 68.82C202.96 69.444 202.816 70.004 202.528 70.5C202.248 70.988 201.856 71.372 201.352 71.652C200.856 71.932 200.292 72.072 199.66 72.072ZM199.66 71.064C200.068 71.064 200.432 70.972 200.752 70.788C201.08 70.596 201.336 70.332 201.52 69.996C201.704 69.652 201.796 69.26 201.796 68.82C201.796 68.38 201.704 67.992 201.52 67.656C201.336 67.312 201.08 67.048 200.752 66.864C200.432 66.68 200.068 66.588 199.66 66.588C199.252 66.588 198.884 66.68 198.556 66.864C198.236 67.048 197.98 67.312 197.788 67.656C197.604 67.992 197.512 68.38 197.512 68.82C197.512 69.26 197.604 69.652 197.788 69.996C197.98 70.332 198.236 70.596 198.556 70.788C198.884 70.972 199.252 71.064 199.66 71.064ZM206.377 72.072C205.857 72.072 205.357 72.004 204.877 71.868C204.397 71.724 204.021 71.544 203.749 71.328L204.229 70.416C204.509 70.616 204.849 70.776 205.249 70.896C205.649 71.016 206.053 71.076 206.461 71.076C207.469 71.076 207.973 70.788 207.973 70.212C207.973 70.02 207.905 69.868 207.769 69.756C207.633 69.644 207.461 69.564 207.253 69.516C207.053 69.46 206.765 69.4 206.389 69.336C205.877 69.256 205.457 69.164 205.129 69.06C204.809 68.956 204.533 68.78 204.301 68.532C204.069 68.284 203.953 67.936 203.953 67.488C203.953 66.912 204.193 66.452 204.673 66.108C205.153 65.756 205.797 65.58 206.605 65.58C207.029 65.58 207.453 65.632 207.877 65.736C208.301 65.84 208.649 65.98 208.921 66.156L208.429 67.068C207.909 66.732 207.297 66.564 206.593 66.564C206.105 66.564 205.733 66.644 205.477 66.804C205.221 66.964 205.093 67.176 205.093 67.44C205.093 67.648 205.165 67.812 205.309 67.932C205.453 68.052 205.629 68.14 205.837 68.196C206.053 68.252 206.353 68.316 206.737 68.388C207.249 68.476 207.661 68.572 207.973 68.676C208.293 68.772 208.565 68.94 208.789 69.18C209.013 69.42 209.125 69.756 209.125 70.188C209.125 70.764 208.877 71.224 208.381 71.568C207.893 71.904 207.225 72.072 206.377 72.072Z" fill="#56C2FF"/>
<path d="M303.344 57.096C302.504 57.096 301.744 56.912 301.064 56.544C300.392 56.168 299.864 55.656 299.48 55.008C299.096 54.352 298.904 53.616 298.904 52.8C298.904 51.984 299.096 51.252 299.48 50.604C299.864 49.948 300.396 49.436 301.076 49.068C301.756 48.692 302.516 48.504 303.356 48.504C304.012 48.504 304.612 48.616 305.156 48.84C305.7 49.056 306.164 49.38 306.548 49.812L305.768 50.568C305.136 49.904 304.348 49.572 303.404 49.572C302.78 49.572 302.216 49.712 301.712 49.992C301.208 50.272 300.812 50.66 300.524 51.156C300.244 51.644 300.104 52.192 300.104 52.8C300.104 53.408 300.244 53.96 300.524 54.456C300.812 54.944 301.208 55.328 301.712 55.608C302.216 55.888 302.78 56.028 303.404 56.028C304.34 56.028 305.128 55.692 305.768 55.02L306.548 55.776C306.164 56.208 305.696 56.536 305.144 56.76C304.6 56.984 304 57.096 303.344 57.096ZM310.546 57.072C309.914 57.072 309.346 56.932 308.842 56.652C308.338 56.372 307.942 55.988 307.654 55.5C307.374 55.004 307.234 54.444 307.234 53.82C307.234 53.196 307.374 52.64 307.654 52.152C307.942 51.656 308.338 51.272 308.842 51C309.346 50.72 309.914 50.58 310.546 50.58C311.178 50.58 311.742 50.72 312.238 51C312.742 51.272 313.134 51.656 313.414 52.152C313.702 52.64 313.846 53.196 313.846 53.82C313.846 54.444 313.702 55.004 313.414 55.5C313.134 55.988 312.742 56.372 312.238 56.652C311.742 56.932 311.178 57.072 310.546 57.072ZM310.546 56.064C310.954 56.064 311.318 55.972 311.638 55.788C311.966 55.596 312.222 55.332 312.406 54.996C312.59 54.652 312.682 54.26 312.682 53.82C312.682 53.38 312.59 52.992 312.406 52.656C312.222 52.312 311.966 52.048 311.638 51.864C311.318 51.68 310.954 51.588 310.546 51.588C310.138 51.588 309.77 51.68 309.442 51.864C309.122 52.048 308.866 52.312 308.674 52.656C308.49 52.992 308.398 53.38 308.398 53.82C308.398 54.26 308.49 54.652 308.674 54.996C308.866 55.332 309.122 55.596 309.442 55.788C309.77 55.972 310.138 56.064 310.546 56.064ZM318.836 50.58C319.644 50.58 320.284 50.816 320.756 51.288C321.236 51.752 321.476 52.436 321.476 53.34V57H320.324V53.472C320.324 52.856 320.176 52.392 319.88 52.08C319.584 51.768 319.16 51.612 318.608 51.612C317.984 51.612 317.492 51.796 317.132 52.164C316.772 52.524 316.592 53.044 316.592 53.724V57H315.44V50.64H316.544V51.6C316.776 51.272 317.088 51.02 317.48 50.844C317.88 50.668 318.332 50.58 318.836 50.58ZM325.936 48.972C325.248 48.972 324.904 49.344 324.904 50.088V50.64H326.752V51.588H324.928V57H323.776V51.588H322.696V50.64H323.776V50.076C323.776 49.444 323.96 48.944 324.328 48.576C324.696 48.208 325.212 48.024 325.876 48.024C326.132 48.024 326.372 48.056 326.596 48.12C326.82 48.184 327.012 48.276 327.172 48.396L326.824 49.272C326.56 49.072 326.264 48.972 325.936 48.972ZM328.804 50.64H329.956V57H328.804V50.64ZM329.38 49.416C329.156 49.416 328.968 49.344 328.816 49.2C328.672 49.056 328.6 48.88 328.6 48.672C328.6 48.464 328.672 48.288 328.816 48.144C328.968 47.992 329.156 47.916 329.38 47.916C329.604 47.916 329.788 47.988 329.932 48.132C330.084 48.268 330.16 48.44 330.16 48.648C330.16 48.864 330.084 49.048 329.932 49.2C329.788 49.344 329.604 49.416 329.38 49.416ZM333.255 51.708C333.455 51.34 333.751 51.06 334.143 50.868C334.535 50.676 335.011 50.58 335.571 50.58V51.696C335.507 51.688 335.419 51.684 335.307 51.684C334.683 51.684 334.191 51.872 333.831 52.248C333.479 52.616 333.303 53.144 333.303 53.832V57H332.151V50.64H333.255V51.708ZM344.946 50.58C345.746 50.58 346.378 50.812 346.842 51.276C347.314 51.74 347.55 52.428 347.55 53.34V57H346.398V53.472C346.398 52.856 346.254 52.392 345.966 52.08C345.686 51.768 345.282 51.612 344.754 51.612C344.17 51.612 343.706 51.796 343.362 52.164C343.018 52.524 342.846 53.044 342.846 53.724V57H341.694V53.472C341.694 52.856 341.55 52.392 341.262 52.08C340.982 51.768 340.578 51.612 340.05 51.612C339.466 51.612 339.002 51.796 338.658 52.164C338.314 52.524 338.142 53.044 338.142 53.724V57H336.99V50.64H338.094V51.588C338.326 51.26 338.63 51.012 339.006 50.844C339.382 50.668 339.81 50.58 340.29 50.58C340.786 50.58 341.226 50.68 341.61 50.88C341.994 51.08 342.29 51.372 342.498 51.756C342.738 51.388 343.07 51.1 343.494 50.892C343.926 50.684 344.41 50.58 344.946 50.58ZM351.986 50.58C352.866 50.58 353.538 50.796 354.002 51.228C354.474 51.66 354.71 52.304 354.71 53.16V57H353.618V56.16C353.426 56.456 353.15 56.684 352.79 56.844C352.438 56.996 352.018 57.072 351.53 57.072C350.818 57.072 350.246 56.9 349.814 56.556C349.39 56.212 349.178 55.76 349.178 55.2C349.178 54.64 349.382 54.192 349.79 53.856C350.198 53.512 350.846 53.34 351.734 53.34H353.558V53.112C353.558 52.616 353.414 52.236 353.126 51.972C352.838 51.708 352.414 51.576 351.854 51.576C351.478 51.576 351.11 51.64 350.75 51.768C350.39 51.888 350.086 52.052 349.838 52.26L349.358 51.396C349.686 51.132 350.078 50.932 350.534 50.796C350.99 50.652 351.474 50.58 351.986 50.58ZM351.722 56.184C352.162 56.184 352.542 56.088 352.862 55.896C353.182 55.696 353.414 55.416 353.558 55.056V54.168H351.782C350.806 54.168 350.318 54.496 350.318 55.152C350.318 55.472 350.442 55.724 350.69 55.908C350.938 56.092 351.282 56.184 351.722 56.184ZM357.946 51.708C358.146 51.34 358.442 51.06 358.834 50.868C359.226 50.676 359.702 50.58 360.262 50.58V51.696C360.198 51.688 360.11 51.684 359.998 51.684C359.374 51.684 358.882 51.872 358.522 52.248C358.17 52.616 357.994 53.144 357.994 53.832V57H356.842V50.64H357.946V51.708ZM299.79 72.072C299.142 72.072 298.562 71.932 298.05 71.652C297.546 71.372 297.15 70.988 296.862 70.5C296.574 70.004 296.43 69.444 296.43 68.82C296.43 68.196 296.574 67.64 296.862 67.152C297.15 66.656 297.546 66.272 298.05 66C298.562 65.72 299.142 65.58 299.79 65.58C300.366 65.58 300.878 65.696 301.326 65.928C301.782 66.16 302.134 66.496 302.382 66.936L301.506 67.5C301.306 67.196 301.058 66.968 300.762 66.816C300.466 66.664 300.138 66.588 299.778 66.588C299.362 66.588 298.986 66.68 298.65 66.864C298.322 67.048 298.062 67.312 297.87 67.656C297.686 67.992 297.594 68.38 297.594 68.82C297.594 69.268 297.686 69.664 297.87 70.008C298.062 70.344 298.322 70.604 298.65 70.788C298.986 70.972 299.362 71.064 299.778 71.064C300.138 71.064 300.466 70.988 300.762 70.836C301.058 70.684 301.306 70.456 301.506 70.152L302.382 70.704C302.134 71.144 301.782 71.484 301.326 71.724C300.878 71.956 300.366 72.072 299.79 72.072ZM306.504 72.072C305.872 72.072 305.304 71.932 304.8 71.652C304.296 71.372 303.9 70.988 303.612 70.5C303.332 70.004 303.192 69.444 303.192 68.82C303.192 68.196 303.332 67.64 303.612 67.152C303.9 66.656 304.296 66.272 304.8 66C305.304 65.72 305.872 65.58 306.504 65.58C307.136 65.58 307.7 65.72 308.196 66C308.7 66.272 309.092 66.656 309.372 67.152C309.66 67.64 309.804 68.196 309.804 68.82C309.804 69.444 309.66 70.004 309.372 70.5C309.092 70.988 308.7 71.372 308.196 71.652C307.7 71.932 307.136 72.072 306.504 72.072ZM306.504 71.064C306.912 71.064 307.276 70.972 307.596 70.788C307.924 70.596 308.18 70.332 308.364 69.996C308.548 69.652 308.64 69.26 308.64 68.82C308.64 68.38 308.548 67.992 308.364 67.656C308.18 67.312 307.924 67.048 307.596 66.864C307.276 66.68 306.912 66.588 306.504 66.588C306.096 66.588 305.728 66.68 305.4 66.864C305.08 67.048 304.824 67.312 304.632 67.656C304.448 67.992 304.356 68.38 304.356 68.82C304.356 69.26 304.448 69.652 304.632 69.996C304.824 70.332 305.08 70.596 305.4 70.788C305.728 70.972 306.096 71.064 306.504 71.064ZM319.353 65.58C320.153 65.58 320.785 65.812 321.249 66.276C321.721 66.74 321.957 67.428 321.957 68.34V72H320.805V68.472C320.805 67.856 320.661 67.392 320.373 67.08C320.093 66.768 319.689 66.612 319.161 66.612C318.577 66.612 318.113 66.796 317.769 67.164C317.425 67.524 317.253 68.044 317.253 68.724V72H316.101V68.472C316.101 67.856 315.957 67.392 315.669 67.08C315.389 66.768 314.985 66.612 314.457 66.612C313.873 66.612 313.409 66.796 313.065 67.164C312.721 67.524 312.549 68.044 312.549 68.724V72H311.397V65.64H312.501V66.588C312.733 66.26 313.037 66.012 313.413 65.844C313.789 65.668 314.217 65.58 314.697 65.58C315.193 65.58 315.633 65.68 316.017 65.88C316.401 66.08 316.697 66.372 316.905 66.756C317.145 66.388 317.477 66.1 317.901 65.892C318.333 65.684 318.817 65.58 319.353 65.58ZM329.123 72.072C328.603 72.072 328.103 72.004 327.623 71.868C327.143 71.724 326.767 71.544 326.495 71.328L326.975 70.416C327.255 70.616 327.595 70.776 327.995 70.896C328.395 71.016 328.799 71.076 329.207 71.076C330.215 71.076 330.719 70.788 330.719 70.212C330.719 70.02 330.651 69.868 330.515 69.756C330.379 69.644 330.207 69.564 329.999 69.516C329.799 69.46 329.511 69.4 329.135 69.336C328.623 69.256 328.203 69.164 327.875 69.06C327.555 68.956 327.279 68.78 327.047 68.532C326.815 68.284 326.699 67.936 326.699 67.488C326.699 66.912 326.939 66.452 327.419 66.108C327.899 65.756 328.543 65.58 329.351 65.58C329.775 65.58 330.199 65.632 330.623 65.736C331.047 65.84 331.395 65.98 331.667 66.156L331.175 67.068C330.655 66.732 330.043 66.564 329.339 66.564C328.851 66.564 328.479 66.644 328.223 66.804C327.967 66.964 327.839 67.176 327.839 67.44C327.839 67.648 327.911 67.812 328.055 67.932C328.199 68.052 328.375 68.14 328.583 68.196C328.799 68.252 329.099 68.316 329.483 68.388C329.995 68.476 330.407 68.572 330.719 68.676C331.039 68.772 331.311 68.94 331.535 69.18C331.759 69.42 331.871 69.756 331.871 70.188C331.871 70.764 331.623 71.224 331.127 71.568C330.639 71.904 329.971 72.072 329.123 72.072ZM339.059 68.856C339.059 68.944 339.051 69.06 339.035 69.204H333.875C333.947 69.764 334.191 70.216 334.607 70.56C335.031 70.896 335.555 71.064 336.179 71.064C336.939 71.064 337.551 70.808 338.015 70.296L338.651 71.04C338.363 71.376 338.003 71.632 337.571 71.808C337.147 71.984 336.671 72.072 336.143 72.072C335.471 72.072 334.875 71.936 334.355 71.664C333.835 71.384 333.431 70.996 333.143 70.5C332.863 70.004 332.723 69.444 332.723 68.82C332.723 68.204 332.859 67.648 333.131 67.152C333.411 66.656 333.791 66.272 334.271 66C334.759 65.72 335.307 65.58 335.915 65.58C336.523 65.58 337.063 65.72 337.535 66C338.015 66.272 338.387 66.656 338.651 67.152C338.923 67.648 339.059 68.216 339.059 68.856ZM335.915 66.552C335.363 66.552 334.899 66.72 334.523 67.056C334.155 67.392 333.939 67.832 333.875 68.376H337.955C337.891 67.84 337.671 67.404 337.295 67.068C336.927 66.724 336.467 66.552 335.915 66.552ZM344.054 65.58C344.862 65.58 345.502 65.816 345.974 66.288C346.454 66.752 346.694 67.436 346.694 68.34V72H345.542V68.472C345.542 67.856 345.394 67.392 345.098 67.08C344.802 66.768 344.378 66.612 343.826 66.612C343.202 66.612 342.71 66.796 342.35 67.164C341.99 67.524 341.81 68.044 341.81 68.724V72H340.658V65.64H341.762V66.6C341.994 66.272 342.306 66.02 342.698 65.844C343.098 65.668 343.55 65.58 344.054 65.58ZM352.222 65.58C353.03 65.58 353.67 65.816 354.142 66.288C354.622 66.752 354.862 67.436 354.862 68.34V72H353.71V68.472C353.71 67.856 353.562 67.392 353.266 67.08C352.97 66.768 352.546 66.612 351.994 66.612C351.37 66.612 350.878 66.796 350.518 67.164C350.158 67.524 349.978 68.044 349.978 68.724V72H348.826V63.096H349.978V66.54C350.218 66.236 350.53 66 350.914 65.832C351.306 65.664 351.742 65.58 352.222 65.58ZM359.31 65.58C360.19 65.58 360.862 65.796 361.326 66.228C361.798 66.66 362.034 67.304 362.034 68.16V72H360.942V71.16C360.75 71.456 360.474 71.684 360.114 71.844C359.762 71.996 359.342 72.072 358.854 72.072C358.142 72.072 357.57 71.9 357.138 71.556C356.714 71.212 356.502 70.76 356.502 70.2C356.502 69.64 356.706 69.192 357.114 68.856C357.522 68.512 358.17 68.34 359.058 68.34H360.882V68.112C360.882 67.616 360.738 67.236 360.45 66.972C360.162 66.708 359.738 66.576 359.178 66.576C358.802 66.576 358.434 66.64 358.074 66.768C357.714 66.888 357.41 67.052 357.162 67.26L356.682 66.396C357.01 66.132 357.402 65.932 357.858 65.796C358.314 65.652 358.798 65.58 359.31 65.58ZM359.046 71.184C359.486 71.184 359.866 71.088 360.186 70.896C360.506 70.696 360.738 70.416 360.882 70.056V69.168H359.106C358.13 69.168 357.642 69.496 357.642 70.152C357.642 70.472 357.766 70.724 358.014 70.908C358.262 71.092 358.606 71.184 359.046 71.184Z" fill="#AAAAAA"/>
</svg>
