<svg width="28" height="28" viewBox="0 0 28 28" fill="none" xmlns="http://www.w3.org/2000/svg">
<path d="M10.8809 0H18.1932C20.0183 0 21.5664 0.195873 22.8366 0.58771C24.1305 0.956408 25.1701 1.68228 25.9555 2.76542C26.7409 3.84857 27.1341 5.36954 27.1341 7.32844C27.1341 8.98768 26.7759 10.2782 26.0595 11.2C25.3431 12.1218 24.327 12.7094 23.0096 12.963C24.6267 13.1704 25.8629 13.8502 26.7182 15.0024C27.5726 16.1547 27.9998 17.7218 27.9998 19.7037C27.9998 25.2346 25.1701 28 19.5098 28H10.8809V0ZM18.2972 11.2C19.6137 11.2 20.5031 10.9004 20.9653 10.3013C21.4501 9.70203 21.693 8.76867 21.693 7.50127C21.693 6.39508 21.3925 5.56542 20.7923 5.01237C20.1912 4.43628 19.3132 4.14814 18.1583 4.14814H17.0837V11.2H18.2972ZM18.4012 23.6789C19.7177 23.6789 20.642 23.3563 21.1732 22.7111C21.728 22.0427 22.0049 21.0057 22.0049 19.5999C22.0049 18.0098 21.728 16.8921 21.1732 16.2469C20.642 15.6017 19.7064 15.279 18.3662 15.279H17.0837V23.6789H18.4012Z" fill="#4DBEFE"/>
<path d="M17.1189 0H9.80654C7.98152 0 6.43342 0.195873 5.16317 0.58771C3.86931 0.956408 2.82968 1.68228 2.04429 2.76542C1.25889 3.84857 0.865716 5.36954 0.865716 7.32844C0.865716 8.98768 1.22391 10.2782 1.94031 11.2C2.65671 12.1218 3.67274 12.7094 4.99023 12.963C3.37313 13.1704 2.1369 13.8502 1.28157 15.0024C0.427183 16.1547 0 17.7218 0 19.7037C0 25.2346 2.82969 28 8.49002 28H17.1189V0ZM9.7026 11.2C8.38604 11.2 7.49669 10.9004 7.03452 10.3013C6.54968 9.70203 6.30676 8.76867 6.30676 7.50127C6.30676 6.39508 6.60731 5.56542 7.20746 5.01237C7.80856 4.43628 8.68659 4.14814 9.84153 4.14814H10.9161V11.2H9.7026ZM9.59862 23.6789C8.28206 23.6789 7.35775 23.3563 6.8266 22.7111C6.27181 22.0427 5.99488 21.0057 5.99488 19.5999C5.99488 18.0098 6.27181 16.8921 6.8266 16.2469C7.35775 15.6017 8.29342 15.279 9.6336 15.279H10.9161V23.6789H9.59862Z" fill="#4DBEFE"/>
</svg>
