<svg width="307" height="104" viewBox="0 0 307 104" fill="none" xmlns="http://www.w3.org/2000/svg">
<path d="M4.13867 27.2673H18.6953C22.3287 27.2673 25.4102 27.6635 27.9398 28.4559C30.5154 29.2016 32.5851 30.6699 34.1488 32.8606C35.7125 35.0513 36.4944 38.1276 36.4944 42.0895C36.4944 45.4455 35.7815 48.0557 34.3557 49.9201C32.93 51.7845 30.9063 52.9731 28.2847 53.4858C31.5042 53.9053 33.9648 55.2803 35.6665 57.6109C37.3682 59.9414 38.2191 63.1109 38.2191 67.1194C38.2191 78.306 32.5851 83.8993 21.3169 83.8993H4.13867V27.2673ZM18.9023 49.9201C21.5238 49.9201 23.2945 49.3142 24.2144 48.1023C25.1802 46.8904 25.6632 45.0027 25.6632 42.4391C25.6632 40.2018 25.0653 38.5238 23.8695 37.4052C22.6736 36.2399 20.926 35.6573 18.6263 35.6573H16.4877V49.9201H18.9023ZM19.1092 75.1598C21.7308 75.1598 23.5705 74.5072 24.6283 73.2021C25.7321 71.8504 26.2841 69.7529 26.2841 66.9097C26.2841 63.6936 25.7321 61.4329 24.6283 60.1278C23.5705 58.8228 21.7078 58.1702 19.0402 58.1702H16.4877V75.1598H19.1092ZM44.5586 27.2673H55.7348V83.8993H44.5586V27.2673ZM70.044 84.5984C67.6523 84.5984 65.8126 83.7361 64.5249 82.0115C63.237 80.2403 62.5932 77.9564 62.5932 75.1598V43.4878H73.8383V73.8314C73.8383 74.8568 74.0223 75.6259 74.3903 76.1386C74.7581 76.6514 75.3561 76.9077 76.184 76.9077C76.9198 76.9077 78.0236 76.4882 79.4954 75.6492V43.4878H90.6712V83.8993H79.4954V80.1937C76.3679 83.1302 73.2175 84.5984 70.044 84.5984ZM110.81 84.5984C106.44 84.5984 103.037 83.4332 100.6 81.1026C98.1617 78.7255 96.9432 75.3929 96.9432 71.1047V56.2825C96.9432 51.9943 98.1617 48.685 100.6 46.3544C103.037 43.9773 106.44 42.7887 110.81 42.7887C115.225 42.7887 118.537 43.9307 120.744 46.2146C122.952 48.4985 124.056 51.8544 124.056 56.2825V64.3927H108.05V72.1534C108.05 75.0433 108.971 76.4882 110.81 76.4882C112.742 76.4882 113.707 75.1831 113.707 72.5729V68.308H124.056V72.2233C124.056 76.2784 122.883 79.3547 120.537 81.4522C118.237 83.5497 114.995 84.5984 110.81 84.5984ZM113.707 59.0791V55.024C113.707 53.5324 113.432 52.4837 112.88 51.8778C112.373 51.2252 111.661 50.8989 110.741 50.8989C109.867 50.8989 109.2 51.2485 108.74 51.9477C108.281 52.6468 108.05 53.882 108.05 55.6532V59.0791H113.707Z" fill="#4DBEFE"/>
<path d="M130.906 27.2673H145.463C149.096 27.2673 152.178 27.6635 154.707 28.4559C157.283 29.2016 159.353 30.6699 160.916 32.8606C162.48 35.0513 163.262 38.1276 163.262 42.0895C163.262 45.4455 162.549 48.0557 161.123 49.9201C159.698 51.7845 157.674 52.9731 155.052 53.4858C158.272 53.9053 160.733 55.2803 162.434 57.6109C164.136 59.9414 164.987 63.1109 164.987 67.1194C164.987 78.306 159.353 83.8993 148.084 83.8993H130.906V27.2673ZM145.67 49.9201C148.291 49.9201 150.062 49.3142 150.982 48.1023C151.948 46.8904 152.431 45.0027 152.431 42.4391C152.431 40.2018 151.833 38.5238 150.637 37.4052C149.441 36.2399 147.694 35.6573 145.394 35.6573H143.255V49.9201H145.67ZM145.877 75.1598C148.498 75.1598 150.338 74.5072 151.396 73.2021C152.5 71.8504 153.052 69.7529 153.052 66.9097C153.052 63.6936 152.5 61.4329 151.396 60.1278C150.338 58.8228 148.475 58.1702 145.808 58.1702H143.255V75.1598H145.877ZM179.053 84.5984C177.121 84.5984 175.443 84.1324 174.016 83.2001C172.637 82.2213 171.579 80.9861 170.843 79.4946C170.153 77.9564 169.808 76.3717 169.808 74.7403C169.808 71.6174 170.59 69.0538 172.154 67.0495C173.718 65.0453 175.581 63.4838 177.742 62.3652C179.949 61.2465 182.778 60.0813 186.227 58.8694V54.8142C186.227 53.649 186.044 52.7633 185.676 52.1574C185.354 51.5515 184.756 51.2485 183.882 51.2485C183.008 51.2485 182.387 51.5282 182.019 52.0875C181.652 52.6468 181.445 53.4392 181.398 54.4646L181.122 57.4011L170.636 56.9816C170.821 52.1341 172.085 48.5684 174.43 46.2845C176.776 43.9539 180.272 42.7887 184.917 42.7887C188.827 42.7887 191.816 43.9073 193.885 46.1446C195.955 48.3354 196.99 51.2719 196.99 54.9541V73.8314C196.99 77.9331 197.22 81.2891 197.68 83.8993H187.607C187.193 80.7764 186.895 78.8653 186.71 78.1662C186.158 80.0306 185.239 81.5687 183.951 82.7806C182.663 83.9925 181.031 84.5984 179.053 84.5984ZM183.054 76.9077C184.204 76.9077 185.262 76.2319 186.227 74.8801V63.8334C184.158 65.0453 182.594 66.327 181.536 67.6788C180.479 68.9838 179.949 70.5919 179.949 72.503C179.949 73.8547 180.225 74.9267 180.777 75.7191C181.329 76.5115 182.088 76.9077 183.054 76.9077ZM203.653 43.4878H214.898V47.543C218.026 44.3734 221.222 42.7887 224.488 42.7887C226.879 42.7887 228.696 43.6743 229.938 45.4455C231.225 47.1701 231.87 49.4307 231.87 52.2273V83.8993H220.693V53.8354C220.693 52.81 220.51 52.0642 220.141 51.5981C219.82 51.0854 219.245 50.829 218.417 50.829C217.497 50.829 216.324 51.3184 214.898 52.2973V83.8993H203.653V43.4878ZM238.619 27.2673H249.795V58.6596L259.592 43.4878H272.217L261.592 60.0579L272.079 83.8993H259.799L252.762 64.6724L249.795 68.5178V83.8993H238.619V27.2673Z" fill="white"/>
<path d="M289.925 58.6924H296.597C298.262 58.6924 299.675 58.8722 300.834 59.2318C302.014 59.5702 302.963 60.2364 303.679 61.2305C304.396 62.2246 304.755 63.6206 304.755 65.4185C304.755 66.9413 304.428 68.1258 303.774 68.9718C303.121 69.8178 302.194 70.3572 300.991 70.5899C302.467 70.7802 303.595 71.4042 304.375 72.4617C305.155 73.5193 305.545 74.9575 305.545 76.7766C305.545 81.8528 302.963 84.3909 297.798 84.3909H289.925V58.6924ZM296.692 68.9718C297.893 68.9718 298.704 68.6968 299.126 68.1469C299.569 67.597 299.79 66.7403 299.79 65.5771C299.79 64.5618 299.516 63.8004 298.968 63.2928C298.42 62.764 297.619 62.4996 296.565 62.4996H295.584V68.9718H296.692ZM296.787 80.4251C297.988 80.4251 298.831 80.129 299.316 79.5368C299.822 78.9233 300.075 77.9715 300.075 76.6813C300.075 75.2219 299.822 74.1961 299.316 73.6039C298.831 73.0117 297.978 72.7155 296.755 72.7155H295.584V80.4251H296.787Z" fill="#4DBEFE"/>
<path d="M295.617 58.6924H288.945C287.28 58.6924 285.867 58.8722 284.708 59.2318C283.528 59.5702 282.579 60.2364 281.862 61.2305C281.146 62.2246 280.787 63.6206 280.787 65.4185C280.787 66.9413 281.114 68.1258 281.767 68.9718C282.421 69.8178 283.348 70.3572 284.55 70.5899C283.075 70.7802 281.947 71.4042 281.166 72.4617C280.387 73.5193 279.997 74.9575 279.997 76.7766C279.997 81.8528 282.579 84.3909 287.744 84.3909H295.617V58.6924ZM288.85 68.9718C287.649 68.9718 286.837 68.6968 286.416 68.1469C285.973 67.597 285.752 66.7403 285.752 65.5771C285.752 64.5618 286.026 63.8004 286.573 63.2928C287.122 62.764 287.923 62.4996 288.977 62.4996H289.957V68.9718H288.85ZM288.755 80.4251C287.554 80.4251 286.711 80.129 286.226 79.5368C285.72 78.9233 285.467 77.9715 285.467 76.6813C285.467 75.2219 285.72 74.1961 286.226 73.6039C286.711 73.0117 287.564 72.7155 288.787 72.7155H289.957V80.4251H288.755Z" fill="#4DBEFE"/>
</svg>
